<svg xmlns="http://www.w3.org/2000/svg" xmlns:xlink="http://www.w3.org/1999/xlink" width="600" height="486" viewBox="0 0 600 486">
    <defs>
        <path id="a" d="M403.845 25.372c-4.664 24.98-126.563 77.112-192.864 16.849-66.3-60.264-141.306-10.807-160.264 6.527-18.957 17.335-75.626 75.174-36.83 146.297 18.44 33.805 82.431 31.202 134.925 28.598 57.95-2.874 101.89-5.749 55.065 40.36-53.138 52.323 92.957 64.614 215.18 37.083 83.043-18.706 144.824-57.93 168.16-106.04 56.85-117.21-96.16-187.953-117.85-192.701-5.48-1.2-12.08-1.918-18.954-1.919-20.33 0-43.083 6.278-46.568 24.946z"/>
        <path id="b" d="M.055 9.457c0 5.039 8.188 9.123 18.289 9.123 10.1 0 18.288-4.084 18.288-9.123 0-5.037-8.189-9.122-18.288-9.122C8.243.335.055 4.42.055 9.457z"/>
        <path id="d" d="M.055 9.476c0 5.038 7.833 9.122 17.495 9.122s17.495-4.084 17.495-9.122S27.212.353 17.55.353.055 4.438.055 9.476z"/>
        <path id="f" d="M.435 11.923C24.621 10.086 12.77.494 12.77.494 4.368 1.248.435 11.923.435 11.923z"/>
        <path id="h" d="M3.829 25.266s13.44 12.18 26.974 0l2.569-23.66S16.692 11.223.486.283L3.83 25.266z"/>
        <path id="j" d="M.47 11.28c0 6.186 8.6 11.202 19.207 11.202 10.607 0 19.206-5.016 19.206-11.203 0-6.187-8.6-11.202-19.206-11.202C9.07.077.47 5.092.47 11.279z"/>
        <path id="l" d="M.47 10.338c0 5.669 8.6 10.262 19.207 10.262 10.607 0 19.206-4.593 19.206-10.262 0-5.667-8.6-10.261-19.206-10.261C9.07.077.47 4.67.47 10.338z"/>
        <path id="n" d="M.425 7.892c0 4.147 7.066 7.509 15.781 7.509 8.716 0 15.782-3.362 15.782-7.51 0-4.146-7.066-7.508-15.782-7.508C7.491.383.425 3.745.425 7.892z"/>
        <path id="p" d="M.197 6.94c0 3.796 6.929 6.874 15.475 6.874 8.547 0 15.475-3.078 15.475-6.875 0-3.796-6.928-6.874-15.475-6.874C7.126.065.197 3.143.197 6.94z"/>
        <path id="r" d="M.152 2.65c0 1.431 1.216 2.591 2.717 2.591 1.5 0 2.718-1.16 2.718-2.591C5.587 1.218 4.37.058 2.869.058 1.37.058.152 1.218.152 2.65z"/>
        <path id="t" d="M.296 2.647a2.372 2.372 0 1 0 4.743-.003 2.372 2.372 0 0 0-4.743.003z"/>
        <path id="v" d="M.189 2.694a2.31 2.31 0 1 0 4.62-.002 2.31 2.31 0 0 0-4.62.002z"/>
        <path id="x" d="M.102 1.931a1.607 1.607 0 1 0 3.214-.002 1.607 1.607 0 0 0-3.214.002z"/>
        <path id="z" d="M.346 1.051c0 .543.49.983 1.093.983s1.093-.44 1.093-.983C2.532.51 2.042.07 1.44.07S.346.509.346 1.05z"/>
        <path id="B" d="M.322 1.137c0 .543.489.983 1.092.983.604 0 1.094-.44 1.094-.983 0-.543-.49-.983-1.094-.983-.603 0-1.092.44-1.092.983z"/>
        <path id="D" d="M9.113.101v6.074L6.073.93S.05 4.012 0 11.142v.174c.018 2.614.838 5.764 3.033 9.493h4.054l-2.53 1.841s5.477 6.627 14.69 5.523c0 0 9.395-6.443 4.42-17.672l-3.5 2.577 2.072-5.936S19.444.094 9.673.093c-.184 0-.37.003-.56.008z"/>
        <path id="F" d="M14.924.356c-1.787.01-3.88.404-6.328 1.366l-.536 3.34-1.17-2.33S.752 6.362.438 14.099c0 0 3.032 6.48 10.262 6.491h.03c1.091-.001 2.278-.15 3.564-.49l-1.644-3.228 4.578 2.5s6.362-1.415 7.487-9.877l-4.964-.81L24.44 6.88S22.36.397 15.062.356h-.138z"/>
        <path id="H" d="M1.442 8.458l1.876 2.9-2.463-.939s-2.11 7.053 2.931 13.118c0 0 8.868 3.672 14.436-5.199l-3.427-1.284 5.122-1.326s3.786-5.538-1.143-12.72l-4.258 2.875 2.27-4.657S14.818.093 12.104.093C8.915.093 4.7 1.657 1.442 8.458z"/>
        <path id="J" d="M9.573 6.845l-3.01-4.928S.273 6.297.273 11.225l4.233 3.833H.272S3.555 29.293 19.149 29.02c0 0 5.472-4.654 5.472-10.403l-4.378.548 3.283-3.695s.82-3.698-1.642-8.078l-3.009 2.19-.274-4.928S13.951.548 9.573.274v6.57z"/>
        <path id="L" d="M9.322.505L7.866 5.062 6.37 1.841S-3.432 9.3 2.286 21.074c0 0 5.516 2.542 9.943.539l-1.967-3.141 4.004 1.211s3.136-.664 5.64-4.065l-2.75-1.527 3.699-1.926s1.52-4.97.185-8.398l-5.06 2.29 2.732-4.008S15.206.006 11.862.005c-.88 0-1.75.142-2.54.5z"/>
        <path id="N" d="M2.738.943L4.1 3.421.15 2.066S-1.227 8.528 6.953 12.24l2.186-.916v2.666s3.95 2.357 6.537 1.319c0 0 2.588-5.248 1.09-9.877l-2.467.421V3.735S9.973.418 5.556.418c-.95 0-1.902.153-2.818.525z"/>
        <path id="P" d="M.42 3.303c-.533 2.469 1.758 5.111 5.116 5.903 3.358.792 6.513-.566 7.046-3.034.532-2.468-1.759-5.112-5.117-5.904A8.316 8.316 0 0 0 5.559.043c-2.573 0-4.71 1.27-5.14 3.26z"/>
        <path id="R" d="M.274 12.147h4.277l-3.08 4.418s4.054 6.442 7.923 7.179l1.843-2.67 1.334 2.67s6.587 1.656 10.824-7.18l-1.88-2.944h1.88S25.933 4.048 17.11.366c0 0-.605-.104-1.6-.104-3.394 0-11.318 1.21-15.236 11.885z"/>
        <path id="T" d="M.272.19h264.103v368.614H.272z"/>
        <path id="V" d="M0 .266H257.45v362.872H0z"/>
        <path id="X" d="M3.142 1.745C2.875.893 2.234.242 1.709.29l-.4.038c-.527.05-.74.787-.474 1.64l3.942 12.314c.137.417.461.733.725.706l17.92-1.166c.515-.013.71-.699.437-1.535l-.202-.62c-.272-.839-.909-1.51-1.424-1.498l-15.622.925c-.262.025-.585-.295-.72-.716L3.14 1.745z"/>
        <path id="Y" d="M3.373 1.745C3.08.893 2.379.242 1.803.29l-.437.038c-.578.05-.81.787-.52 1.64l4.319 12.314c.15.417.504.733.793.706l19.63-1.166c.564-.013.778-.699.48-1.535l-.222-.62c-.298-.839-.996-1.51-1.56-1.498l-17.113.925c-.287.025-.64-.295-.79-.716l-3.01-8.634z"/>
        <path id="Z" d="M3.373 1.745C3.08.893 2.379.242 1.803.29l-.437.038c-.578.05-.81.787-.52 1.64l4.319 12.314c.15.417.504.733.793.706l19.63-1.166c.564-.013.778-.699.48-1.535l-.222-.62c-.298-.839-.996-1.51-1.56-1.498l-17.113.925c-.287.025-.64-.295-.79-.716l-3.01-8.634z"/>
        <path id="aa" d="M.124.307h8.68v25.997H.124z"/>
        <path id="ac" d="M0 131.519h92.837V0H0z"/>
        <path id="ae" d="M.405 4.945C-.03 6.8 2.15 9.398 1.712 11.499c-.436 2.103-.934 6.926 4.23 10.76 5.166 3.833 7.655-.124 6.348-3.03-.346-.768-.779-2.263-1.23-4.096-1.355 1.099-5.366 1.128-7.689-3.405C1.05 7.19 1.65.245 1.65.245S.84 3.09.405 4.945z"/>
        <path id="ag" d="M3.718 9.515c1.07.126 2.515 1.133 5.91 4.531 3.395 3.401 7.043 3.904 7.043 3.904 8.237 0 6.728-4.344 4.15-5.665-.71-.365-1.903-1.28-3.286-2.485-1.526 1.254-3.84 1.687-9.541-1.503C2.293 5.107 1.454.574 1.454.574c-2.2 4.282 1.195 8.814 2.264 8.941z"/>
        <path id="ai" d="M.436 24.291S3.863 35.714 2.483 38.33C1.105 40.945.604 48.423 1.858 53.033 3.111 57.644 4.05 68.546 4.05 68.546s-.604 6.999 1.734 11.57c2.34 4.568 6.38 4.538 7.744 3.431-1.264-5.132-2.68-12.888-2.772-14.813-.125-2.617.502-27.041 1.379-30.28 1.504-5.856 4.386-30.652 4.386-30.652s6.392 22.926 6.017 25.668c-.377 2.741-.502 8.722.627 13.208 1.127 4.487 4.198 17.944 3.76 19.065 0 0 .835 4.486 6.517 7.643s7.988 2.728 9.509 1.487c-3.624-3.132-8.556-8.25-9.51-10.688-1.316-3.364-1.63-35.699-1.754-40.56-.125-4.858-.67-11.295-.67-11.295L11.883.077.436 24.291z"/>
        <path id="ak" d="M1.593 1.551C-1.237 4.83.701 8.8 2.02 10.1c1.322 1.297 1.76 1.547 4.277 5.442 0 0 1.655-2.145 4.59-1.67 0 0-.975-4.33-1.352-5.565-.378-1.237.157-2.66.565-3.525.409-.866.096-1.299-.408-1.236-.502.06-1.164.835-1.384 1.391-.22.556-.943 1.638-.943 1.638-2.2-.803-2.251-4.651-2.44-5.332C4.825.884 4.429.56 3.801.56c-.565 0-1.316.26-2.208.991z"/>
        <path id="am" d="M33.661 3.722s-17.766 3.967-18.574 11.2c-.807 5.922-2.733 14.4-2.733 14.4L4.84 15.173c-2.9-.48-4.535 1.683-4.535 1.683 6.212 24.19 12.05 26.62 14.039 25.998 1.988-.624 5.529-6.34 6.69-11.327 1.82 4.655 2.317 13.466 1.488 15.462-6.294 6.983-6.127 13.965-4.968 20.782 1.16 6.816 2.152 13.466 4.14 22.943 12.744.665 27.995-7.98 30.313-11.97 0-5.985-2.318-19.869-4.553-29.592-2.238-9.728-1.492-16.71-.932-19.963 1.677 1.631 14.597-1.923 25.902-5.475 0 0 .125-1.538-.02-2.494-.145-.956-.642-1.739-.642-1.739s-19.714 3.563-20.337 1.567c-.62-1.995-2.73-16.038-4.842-19.405C45.976.676 45.073.305 43.973.305c-2.731 0-6.68 2.29-10.312 3.417z"/>
        <path id="ao" d="M.076 8.148c2.017 1.59 9.001 7.061 11.735 10.196.121-2.458.243-10.39.546-12.05C8.41 5.128.797.723.797.723s.602 5.16-.72 7.426z"/>
        <path id="aq" d="M6.978 3.387C.103 5.696-1.825 19.135 3.121 28.204c3.27 4.945 11.298 3.545 12.723 3.379-1.404-.618-4.297-5.008-4.255-7.336 1.928-2.97 16.61-8.91 16.61-8.91 2.839-4.909-3.549-15-12.624-15-2.686 0-5.609.885-8.597 3.05z"/>
        <path id="as" d="M18.59.026c-2.414 2.77-7.324 3.861-11.234 3.358.749 4.701-3.83 7.472-3.83 7.472s-1.913-1.765-2.663.337c-.748 2.099.917 3.944 2.33 4.365 5.66 8.476 12.9 6.63 12.9 6.63 5.41-2.771 4.078-11.836 3.496-14.692.48-3.633-.629-7.489-.963-7.489-.014 0-.025.007-.036.02z"/>
        <path id="au" d="M18.832 6.307c1.172 2.141 4.972 9.822-3.038 11.837-2.122.25-2.575 1.595-3.419 2.266-.844.673-4.812 3.274-11.819 1.09 2.449 2.1 9.36 2.263 12.99.232 1.086-.807 1.552-1.606 2.849-1.826 1.3-.22 4.379-3.084 4.367-5.415.476-2.517.826-4.973-.98-7.995-.79-.903-1.635-3.504-2.215-5.855 0 0 .254 2.265 1.265 5.666z"/>
        <path id="aw" d="M12.861.438c-1.244.618-3.484 1.112-5.848 1.174-2.393.51-3.707.118-4.41-.351C1.15 2.097.439 4.03.439 4.03s.498.777.643 1.725c.145.948.02 2.473.02 2.473C12.493 6.985 13.995.4 13.003.4a.32.32 0 0 0-.142.039z"/>
        <path id="ay" d="M6.856.793c-.59.524-3.996.918-5.96 1.51a2.97 2.97 0 0 0-.647.282c.739.497 2.123.913 4.642.373 2.5-.582 2.574-2.25 2.146-2.25-.053 0-.115.027-.181.085z"/>
        <path id="aA" d="M4.093.419c-1.02.204.04 2.747 1.752 6.476-1.425.327-5.38.901-5.38 5.738.327 1.188 1.427 1.312 1.754 1.148.202.738 1.432 3.577 2.509 3.878 1.076.303 5.312-2.005 5.312-2.005s-.609-7.407-1.383-8.39C7.895 6.296 5.203.414 4.145.413a.247.247 0 0 0-.052.006z"/>
        <path id="aC" d="M.683 1.964c-.285.37-.449.782-.501 1.215 1.006 1.558 3.032 3.936 6.297 4.576 2.933.566 5.063.158 7.688 1.857 2.436 1.578 6.466 2.042 8.638-.64.233-2.387.132-6.94-1.619-6.778-2.264.21-3.705-.546-3.705-.546-1.235-.041-3.458-.922-7.905-.964C7.421.662 5.71.386 4.305.386 2.809.386 1.659.698.683 1.964z"/>
        <path id="aE" d="M8.342 6.63c3.334.468 4.528.51 5.763 1.705 1.236 1.193 5.929 2.43 8.44-.725.094-.155.19-.678.26-1.387-2.172 2.724-6.202 2.254-8.638.65-2.625-1.725-4.755-1.31-7.688-1.885C3.214 4.338 1.189 1.923.182.34c-.296 2.478 2.951 5.674 8.16 6.288z"/>
        <path id="aG" d="M.187 1.165l.34 4.37s.936 1.706 4.3 1.924c1.575-.086 3.703-1.223 3.746-3.147-.254-1.706-.34-3.628-.34-3.628l-8.046.481z"/>
        <path id="aI" d="M.233 3.777c.291 3.022 4.688 6.045 4.812 7.229.25 3.616 3.402 7.503 6.763 5.695 1.267-.682 1.927-1.484 2.25-2.322-6 4.566-7.949-2.18-8.349-3.76-.414-1.637-1.452-2.35-3.65-5.247C.764 3.668.633 1.542.746.08.298.897.07 2.087.233 3.777z"/>
        <path id="aK" d="M2.186.402A2.91 2.91 0 0 0 .762 1.67C.647 3.095.78 5.172 2.1 6.836c2.243 2.83 3.302 3.526 3.725 5.125.408 1.543 2.397 8.13 8.517 3.672.544-1.353.154-2.806.074-4.011-.127-1.936-.814-1.896-.814-1.896s-3.84-1.947-5.662-5.43C6.43 1.406 4.338.263 2.944.263a1.95 1.95 0 0 0-.758.14z"/>
        <path id="aM" d="M.076.8V3.03s.082 1.617 2.14 2.799c2.058 1.18 4.277-.656 4.395-1.64.113-1.23.01-3.781.01-3.781L.076.8z"/>
        <path id="aO" d="M.241 12.81S1.89 45.754 3.06 53.07c1.169 7.316 6.346 35.662 6.346 35.662s4.009 2.494 8.184-1.08c-.333-6.402-2.84-34-3.172-35.58-.335-1.578 2.587-31.67 4.342-33.416 1.502-.5 2.004-.748 2.004-.748s-1.128 23.524 0 29.634c1.128 6.11 5.679 30.881 5.679 30.881s4.593 1.83 7.682-.996c.085-4.822-2.338-27.183-3.173-31.007-.835-3.825 2.673-28.097 4.51-31.838 2.212-6.566.96-14.298.96-14.298L.242 12.81z"/>
        <path id="aQ" d="M42.57 5.202c-7.734 3.54-12.314 7.642-16.08 10.799-2.011.249-10.426 13.207-11.929 13.375-.918 0-5.176-16.699-6.763-22.015C5.21 6.448 1.119 8.36.619 10.24 3.624 23.976 5.21 41.255 10.637 42.584c3.673.664 12.71-8.1 17.22-12.587 1.751 19.563-3.07 35.139-1.367 37.382 8.215 9.222 34.362-9.095 36.867-11.837.125-4.485-2.81-11.935-2.935-16.42 0 0-.947-10.246-.947-13.652 0-3.405.5-9.968 0-12.793 1.754 7.31 1.42 11.3 1.502 14.04.084 2.742 1.221 10.914 1.221 10.914 8.233-7.088 6.794-8.755 6.794-8.755.502-5.606-8.64-24.92-10.269-27.663-.355-.6-1.106-.847-2.11-.848-3.585 0-10.4 3.167-14.043 4.837z"/>
        <path id="aS" d="M.308 12.872c0 3.406.892 13.651.892 13.651.6-.521 1.156-1.018 1.672-1.49 0 0-1.071-8.172-1.15-10.914-.078-2.741.237-6.73-1.414-14.04.472 2.825 0 9.387 0 12.793z"/>
        <path id="aU" d="M1.95 1.378S.049 5.117.38 8.938c0 2.575-1.323 9.553 6.123 13.374 2.068.498 5.294-.914 5.294-.914s.35 1.937-.096 3.92c-1.465 1.271-1.34 1.879-.896 2.144 2.73.998 10.26.458 10.694-5.918 0-.328-.14-.624-.668-.64-.33-.631-.511-1.5-.511-1.5L10.556.547l-8.605.831z"/>
        <path id="aW" d="M.746 2.849c-2.023 5.993 5.647 7.594 5.647 7.594-1.18 4.929 1.012 9.856 1.012 9.856l.843-1.48s-.253-2.298 1.517-2.298 2.699 2.052 2.024 4.517c1.095 3.695 8.934 5.501 10.115 5.173-.759-1.313 1.18-4.6 3.034-7.143 4.132-8.131.506-13.552-3.539-16.18C17.352.262 10.524 1.495 8.248 1.823 7.677.782 6.358.22 4.963.22c-1.695.001-3.5.827-4.217 2.629z"/>
        <path id="aY" d="M18.21.178L1.519 9.655C.683 10.13 0 11.412 0 12.505v15.836c0 .607.21 1.032.54 1.21v.002l3.934 2.224 8.848-4.558 3.181 2.366 3.928 2.22v-8.623l2.673-20.875-3.909-2.21h-.001A.79.79 0 0 0 18.808 0c-.183 0-.385.056-.597.178z"/>
        <path id="ba" d="M18.414.49l-16.57 9.606c-.829.479-1.507 1.78-1.507 2.889v16.048c0 1.11.678 1.625 1.507 1.143l8.348-4.838 6.527 4.955v-8.74l1.695-.981c.828-.48 1.507-1.78 1.507-2.89V1.633c0-.827-.378-1.323-.913-1.323-.183 0-.384.057-.594.18z"/>
        <path id="bc" d="M6.108 1.557c-.133.195-.3.35-.503.466a1.221 1.221 0 0 1-.527.148l-.572.024c-.838.051-1.409.162-1.714.335C1.767 3.114.955 4.57.361 6.895l1.334.483c.324-.799.642-1.287.951-1.463.22-.124.583-.194 1.09-.21.82-.024 1.402-.135 1.746-.331.559-.317 1.024-.806 1.395-1.468.372-.66.725-1.625 1.06-2.89L6.602.535c-.197.486-.362.827-.494 1.023zM5.612 6.83c-.157.09-.334.142-.534.154l-.572.025c-.833.04-1.405.149-1.714.324C1.767 7.918.955 9.377.361 11.71l1.334.473c.324-.8.642-1.286.951-1.462.22-.124.583-.192 1.09-.2.82-.026 1.404-.137 1.754-.336.553-.315 1.016-.804 1.387-1.465.372-.662.725-1.628 1.06-2.899l-1.335-.473c-.33.803-.66 1.297-.99 1.484z"/>
        <path id="be" d="M18.804.642l-16.693 9.58c-.834.478-1.518 1.775-1.518 2.88v16.006c0 .623.218 1.058.556 1.233l2.67 1.526v6.116l3.927 2.245 7.51-17.522 3.548-2.036c.836-.48 1.518-1.777 1.518-2.883v-6.9L23.77 2.84 19.889.629a.781.781 0 0 0-.487-.165c-.183 0-.385.058-.598.178z"/>
        <path id="bg" d="M18.53.51L1.72 10.124c-.84.48-1.528 1.783-1.528 2.894v16.06c0 1.108.689 1.623 1.528 1.144l1.72-.983v8.744l6.622-12.531 8.468-4.843c.84-.48 1.527-1.782 1.527-2.891V1.657c0-.828-.381-1.325-.924-1.325-.186 0-.39.057-.603.179z"/>
    </defs>
    <g fill="none" fill-rule="evenodd">
        <use fill="#EAFFCC" transform="translate(0 169.9)" xlink:href="#a"/>
        <path stroke="#80B537" stroke-width="2" d="M264.36 245.162l-86.425 49.792v44.332l-44.495 25.636"/>
        <path stroke="#80B537" stroke-width="2" d="M250.83 241.794l-86.424 49.793v42.802l-38.297 22.065M214.17 251.428l-112.917 65.055M204.966 244.944l-102.493 59.05M215.828 217.458l-86.424 49.792h-77.65L12.52 289.855"/>
        <path stroke="#80B537" stroke-width="2" d="M18.717 296.878l39.234-22.605h78.239l86.424-49.792"/>
        <g stroke="#8DC63F" stroke-width="4">
            <path d="M101.74 317.517c-.888.511-2.23.567-2.999.124-.768-.443-.671-1.216.215-1.727.888-.512 2.23-.567 2.999-.125.768.443.673 1.216-.215 1.728zM126.498 357.72c-.888.512-2.23.567-2.997.125-.77-.443-.673-1.216.214-1.728.888-.511 2.23-.566 2.998-.124.768.443.673 1.216-.215 1.727zM133.84 366.092c-.887.512-2.23.567-2.998.124-.768-.442-.672-1.215.215-1.727.888-.51 2.23-.567 2.999-.124.768.443.672 1.216-.215 1.727zM103.583 304.796c-.887.511-2.23.567-2.998.124-.768-.443-.672-1.215.216-1.728.887-.51 2.229-.566 2.998-.124.767.444.672 1.217-.216 1.728zM19.427 298.014c-.887.511-2.23.567-2.998.124-.768-.443-.672-1.216.216-1.727.887-.512 2.229-.567 2.998-.125.767.444.671 1.216-.216 1.728zM12.972 290.656c-.887.512-2.23.567-2.997.124-.768-.442-.673-1.216.215-1.727.887-.51 2.23-.567 2.998-.124.767.443.672 1.216-.216 1.727z"/>
        </g>
        <path stroke="#8DC63F" stroke-width="2" d="M309.218 336.396l86.424 49.793v44.332l44.496 25.636"/>
        <path stroke="#8DC63F" stroke-width="2" d="M322.747 333.028l86.424 49.793v42.803l38.298 22.065M359.408 342.662l112.916 65.056M368.612 336.179l102.492 59.05M357.75 308.692l86.424 49.793h77.65l39.234 22.604"/>
        <path stroke="#8DC63F" stroke-width="2" d="M554.86 388.112l-39.234-22.604h-78.239l-86.423-49.793"/>
        <g stroke="#8DC63F" stroke-width="4">
            <path d="M471.838 408.751c.888.512 2.23.567 2.998.125.768-.443.672-1.216-.215-1.728-.888-.511-2.23-.567-2.998-.124-.769.443-.673 1.216.215 1.727zM447.08 448.955c.887.512 2.23.567 2.997.124.769-.443.673-1.216-.215-1.727-.888-.512-2.23-.566-2.998-.124-.768.443-.672 1.216.215 1.727zM439.737 457.327c.888.511 2.23.567 2.998.124.769-.443.672-1.215-.214-1.728-.888-.51-2.23-.566-2.999-.124-.768.444-.673 1.217.215 1.728zM469.994 396.03c.888.512 2.23.567 2.999.125.768-.443.671-1.216-.216-1.728-.888-.51-2.23-.567-2.998-.124-.768.443-.672 1.217.215 1.727zM554.15 389.248c.888.512 2.23.567 2.999.125.768-.443.671-1.216-.215-1.728-.889-.511-2.23-.567-2.999-.124-.768.443-.672 1.216.215 1.727zM560.605 381.89c.888.512 2.23.568 2.998.125.768-.443.672-1.216-.215-1.728-.888-.51-2.23-.566-2.998-.124-.768.444-.672 1.217.215 1.728z"/>
        </g>
        <g>
            <g transform="translate(251.527 204.438)">
                <mask id="c" fill="#fff">
                    <use xlink:href="#b"/>
                </mask>
                <path fill="#C1C0C7" d="M-2.43 21.114h41.548V-2.2H-2.431z" mask="url(#c)"/>
            </g>
            <g transform="translate(251.527 202.937)">
                <mask id="e" fill="#fff">
                    <use xlink:href="#d"/>
                </mask>
                <path fill="#F8F7F7" d="M-2.43 21.134h39.96V-2.181H-2.43z" mask="url(#e)"/>
            </g>
            <g transform="translate(270.3 206.689)">
                <mask id="g" fill="#fff">
                    <use xlink:href="#f"/>
                </mask>
                <path fill="#BFBFC7" d="M-2.108 14.424h20.324v-16.43H-2.108z" mask="url(#g)"/>
            </g>
            <g transform="translate(251.527 187.931)">
                <mask id="i" fill="#fff">
                    <use xlink:href="#h"/>
                </mask>
                <path fill="#E2DEE4" d="M-1.998 33.2h37.854V-2.239H-1.998z" mask="url(#i)"/>
            </g>
            <g transform="translate(250.025 172.175)">
                <mask id="k" fill="#fff">
                    <use xlink:href="#j"/>
                </mask>
                <path fill="#BFBFC7" d="M-2.032 24.983h43.418V-2.424H-2.032z" mask="url(#k)"/>
            </g>
            <g transform="translate(250.025 172.175)">
                <mask id="m" fill="#fff">
                    <use xlink:href="#l"/>
                </mask>
                <path fill="#FEFEFD" d="M-2.032 23.102h43.418V-2.424H-2.032z" mask="url(#m)"/>
            </g>
            <g transform="translate(253.028 173.676)">
                <mask id="o" fill="#fff">
                    <use xlink:href="#n"/>
                </mask>
                <path fill="#BFBFC7" d="M-2.098 17.862H34.51V-2.08H-2.1z" mask="url(#o)"/>
            </g>
            <g transform="translate(253.78 175.177)">
                <mask id="q" fill="#fff">
                    <use xlink:href="#p"/>
                </mask>
                <path fill="#89555D" d="M-2.306 16.272h35.957V-2.392H-2.306z" mask="url(#q)"/>
            </g>
            <g transform="translate(271.05 180.429)">
                <mask id="s" fill="#fff">
                    <use xlink:href="#r"/>
                </mask>
                <path fill="#E6AFA5" d="M-2.35 7.629H8.09V-2.33H-2.35z" mask="url(#s)"/>
            </g>
            <g transform="translate(277.809 181.179)">
                <mask id="u" fill="#fff">
                    <use xlink:href="#t"/>
                </mask>
                <path fill="#EA9895" d="M-2.093 7.404h9.524v-9.516h-9.524z" mask="url(#u)"/>
            </g>
            <g transform="translate(258.285 183.43)">
                <mask id="w" fill="#fff">
                    <use xlink:href="#v"/>
                </mask>
                <path fill="#ECB1AA" d="M-2.44 7.63h9.878v-9.87h-9.877z" mask="url(#w)"/>
            </g>
            <g transform="translate(265.043 180.429)">
                <mask id="y" fill="#fff">
                    <use xlink:href="#x"/>
                </mask>
                <path fill="#ECB1AA" d="M-2.245 5.881h7.908V-2.02h-7.908z" mask="url(#y)"/>
            </g>
            <g transform="translate(256.032 179.678)">
                <mask id="A" fill="#fff">
                    <use xlink:href="#z"/>
                </mask>
                <path fill="#ECB1AA" d="M-2.157 4.285h7.192v-6.467h-7.192z" mask="url(#A)"/>
            </g>
            <g transform="translate(266.545 186.43)">
                <mask id="C" fill="#fff">
                    <use xlink:href="#B"/>
                </mask>
                <path fill="#EA9895" d="M-2.181 4.37H5.01v-6.466h-7.192z" mask="url(#C)"/>
            </g>
            <g transform="translate(243.266 121.156)">
                <mask id="E" fill="#fff">
                    <use xlink:href="#D"/>
                </mask>
                <path fill="#74B74A" d="M-2.503 30.798h30.127V-2.407H-2.503z" mask="url(#E)"/>
            </g>
            <g transform="translate(283.816 140.663)">
                <mask id="G" fill="#fff">
                    <use xlink:href="#F"/>
                </mask>
                <path fill="#74B74A" d="M-2.04 23.091h29.233V-2.145H-2.04z" mask="url(#G)"/>
            </g>
            <g transform="translate(266.545 110.652)">
                <mask id="I" fill="#fff">
                    <use xlink:href="#H"/>
                </mask>
                <path fill="#4A803B" d="M-2.057 26.816H23.78v-29.25H-2.057z" mask="url(#I)"/>
            </g>
            <g transform="translate(251.527 93.395)">
                <mask id="K" fill="#fff">
                    <use xlink:href="#J"/>
                </mask>
                <path fill="#74B74A" d="M-2.206 31.503h29.305v-33.71H-2.206z" mask="url(#K)"/>
            </g>
            <g transform="translate(272.552 124.157)">
                <mask id="M" fill="#fff">
                    <use xlink:href="#L"/>
                </mask>
                <path fill="#74B74A" d="M-2.037 24.883H24.12V-2.495H-2.037z" mask="url(#M)"/>
            </g>
            <path stroke="#87B75E" stroke-width="3" d="M252.277 127.158s14.771 22.227 14.255 55.521"/>
            <g transform="translate(248.523 151.167)">
                <mask id="O" fill="#fff">
                    <use xlink:href="#N"/>
                </mask>
                <path fill="#4A803B" d="M-2.405 18.114H19.7V-2.124H-2.405z" mask="url(#O)"/>
            </g>
            <g stroke="#87B75E" stroke-width="3">
                <path d="M269.487 183.955c-4.946-13.924-1.923-30.53 1.648-44.75 3.571-14.22-10.44-38.657-10.44-38.657"/>
                <path d="M287.69 130.215s-9.766 3.738-11.884 21.863c-2.119 18.126 5.769 20.536-6.32 31.534M302.867 149.453s-37.639 8.582-33.38 34.502"/>
            </g>
            <g transform="translate(276.307 163.172)">
                <mask id="Q" fill="#fff">
                    <use xlink:href="#P"/>
                </mask>
                <path fill="#74B74A" d="M-2.112 12h17.225V-2.525H-2.112z" mask="url(#Q)"/>
            </g>
            <g transform="translate(251.527 154.169)">
                <mask id="S" fill="#fff">
                    <use xlink:href="#R"/>
                </mask>
                <path fill="#74B74A" d="M-2.229 26.368h28.466V-2.24H-2.23z" mask="url(#S)"/>
            </g>
        </g>
        <g>
            <path fill="#80B537" d="M469.643 314.676l-52.385-30.336c-6.403-3.707-17.69-3.237-25.083 1.044l-40.25 19.937c-2.183 1.264-3.776-2.1-4.795-.572l-1.314-.163-.01 9.037.012-.03c.02 2.348 1.429 4.587 4.306 6.253l58.206 33.706c6.403 3.708 17.69 3.238 25.084-1.042l34.428-23.308c7.393-4.282 8.204-10.818 1.801-14.526"/>
            <path fill="#8DC63F" d="M408.33 345.306L350.124 311.6c-6.402-3.708-5.592-10.244 1.801-14.525l40.25-19.937c7.393-4.281 18.68-4.751 25.083-1.043l52.385 30.335c6.403 3.708 5.592 10.244-1.8 14.526l-34.43 23.307c-7.393 4.281-18.68 4.75-25.083 1.043"/>
            <g transform="translate(299.34 .728)">
                <mask id="U" fill="#fff">
                    <use xlink:href="#T"/>
                </mask>
                <path fill="#8DC63F" d="M251.091 135.022l-48.608-28.077-27.552-15.915-17.796-10.28-54.434-31.442L20.404 1.772c-3.41-1.97-6.511-2.031-8.863-.572l-.013-.018L.272 7.66l6.849 9.973v185.22c0 9.787 5.947 21.156 13.283 25.393L238.151 354.02l10.153 14.784 11.19-6.45-.002-.004c2.98-1.528 4.883-5.368 4.883-10.902V160.415c0-9.787-5.947-21.155-13.284-25.393" mask="url(#U)"/>
            </g>
            <g transform="translate(294.842 7.474)">
                <mask id="W" fill="#fff">
                    <use xlink:href="#V"/>
                </mask>
                <path fill="#80B537" d="M257.449 327.945v-167.46c0-9.785-5.952-21.152-13.294-25.39l-48.645-28.073-27.573-15.913-17.81-10.279-54.475-31.439-82.358-47.53C5.952-2.376 0 2.12 0 11.906v167.46l9.087 5.244L0 179.365v23.553c0 9.785 5.952 21.153 13.294 25.39l230.86 133.235c7.343 4.238 13.295-.26 13.295-10.046v-23.552L102.22 238.36l13.072 7.544 142.156 82.04z" mask="url(#W)"/>
            </g>
            <path fill="#FFF" d="M532.622 146.55l-45.882-26.46-26.006-15-16.798-9.687-51.38-29.632-77.68-44.8c-6.925-3.993-12.539.246-12.539 9.47v157.835l14.558 8.396 51.381 29.632 16.798 9.688 26.007 14.999 134.08 77.326V170.48c0-9.223-5.615-19.938-12.54-23.931"/>
            <path fill="#FFE461" d="M367.54 165.647l-50.214-28.89V92.183l50.214 28.89z"/>
            <use fill="#FFF" fill-rule="nonzero" stroke="#FFF" stroke-width="3" transform="translate(330.067 119.17)" xlink:href="#X"/>
            <path fill="#FFE461" d="M530.171 260.1l-153.638-89.174v-18.773l153.638 89.174zM530.171 234.613l-153.638-89.174v-18.773l153.638 89.174zM367.54 218.87l-50.214-28.89v-44.573l50.214 28.89z"/>
            <use fill="#FFF" fill-rule="nonzero" stroke="#FFF" stroke-width="3" transform="translate(330.067 172.393)" xlink:href="#Y"/>
            <path fill="#FFE461" d="M530.171 313.324L376.533 224.15v-18.773l153.638 89.174zM530.171 287.837l-153.638-89.174V179.89l153.638 89.174zM367.54 110.923l-50.214-28.89V37.46l50.214 28.89z"/>
            <use fill="#FFF" fill-rule="nonzero" stroke="#FFF" stroke-width="3" transform="translate(330.067 64.446)" xlink:href="#Z"/>
            <path fill="#FFE461" d="M530.171 205.377l-153.638-89.174V97.43l153.638 89.174zM530.171 179.89L376.533 90.716V71.943l153.638 89.174z"/>
            <path fill="#FBDFB6" d="M360.045 82.574s2.12 3.938 2.806 11.858c1.727-.068 4.606-1.009 3.994-4.246-.613-3.238 1.76-7.738.084-9.513-1.677-1.775-6.884 1.901-6.884 1.901"/>
            <path fill="#FF9FB4" d="M451.092 134.222c-2.172-.407-3.708 1.38-4.026 1.917-1.74 2.94-2.162 6.355-5.424 11.267-2.225 3.35-3.77 3.77-5.44 6.53-1.433 2.367.697 3.765 3.205 3.41.98-.138 6.996-.286 8.17-4.854.856-3.339 1.069-5.998 2.789-8.628 1.72-2.63 2.243-.785 2.374.173.094.686.43 2.67.552 3.29a.43.43 0 0 0 .48.347h.01a.435.435 0 0 0 .36-.525c-.166-.729-.225-3.135.233-6.08.563-3.61-1.315-6.474-3.283-6.847"/>
            <path fill="#FBDFB6" d="M445.229 149.267c1.758-2.433 5-10.454 4.735-12.47-.311-2.364-4.551-3.602-5.253-1.716-1.202 3.234-1.203 9.411-5.223 15.025-.043 1.726 3.693 1.996 5.74-.839"/>
            <path fill="#FF9FB4" d="M452.09 150.761c-2.201-.546-3.89 1.143-4.251 1.658-1.973 2.828-2.622 6.214-6.282 10.913-2.496 3.206-4.109 3.53-5.997 6.178-1.621 2.274.476 3.81 3.071 3.617 1.015-.077 7.195.16 8.69-4.329 1.092-3.283 1.48-5.929 3.412-8.447 1.932-2.517 2.35-.642 2.424.327.053.694.273 2.695.357 3.325a.443.443 0 0 0 .47.376h.01a.436.436 0 0 0 .403-.502c-.124-.74-.03-3.148.627-6.064.807-3.572-.936-6.554-2.933-7.052"/>
            <path fill="#FBDFB6" d="M444.898 165.308c2.024-2.257 5.98-9.863 5.827-11.845-.18-2.328-4.612-3.803-5.476-2.015-1.485 3.076-1.878 9.094-6.507 14.303-.157 1.68 3.8 2.187 6.156-.443"/>
            <path fill="#FF7990" d="M479.055 26.076s16.919-7.2 22.336 11.524c5.418 18.724 9.617 26.956 16.04 29.081 0 0-17.634 27.192-45.253-2.942 5.729-9.163-8.31-30.806 6.877-37.663"/>
            <path fill="#7B7BBF" d="M451.934 137.698l-2.783.2c-2.394.173-4.498-1.586-4.677-3.91l-2.726-35.554c-.178-2.324 1.635-4.366 4.029-4.54l2.782-.2c2.395-.173 4.5 1.586 4.677 3.91l2.727 35.555c.178 2.323-1.635 4.366-4.03 4.539"/>
            <path fill="#7B7BBF" d="M450.274 154.96l-2.58-.802c-2.22-.69-3.465-3.05-2.766-5.244l10.692-33.566c.699-2.194 3.087-3.424 5.307-2.733l2.58.802c2.22.69 3.465 3.05 2.766 5.243l-10.692 33.567c-.698 2.193-3.086 3.423-5.307 2.733M481.992 107.17l-35.42-1.649c-2.787-.13-4.961-2.509-4.83-5.288l.15-3.228c.13-2.779 2.517-4.947 5.304-4.817l35.42 1.649c2.787.13 4.961 2.509 4.83 5.288l-.15 3.229c-.13 2.778-2.517 4.946-5.304 4.816"/>
            <path fill="#7B7BBF" d="M496.735 112.695l-33.731 11.453c-2.654.9-5.562-.535-6.463-3.192l-1.046-3.087c-.9-2.656.534-5.567 3.188-6.468l33.732-11.453c2.654-.9 5.562.535 6.463 3.192l1.046 3.087c.9 2.656-.535 5.567-3.189 6.468"/>
            <path fill="#FBDFB6" d="M465.871 83.816s-12.585-.456-14.981-.619c-2.396-.164-4.779 1.748-5.338 3.065-.558 1.318 2.416 3.983 3.178 4.379.762.396 1.72-2.097 4.53-1.93 2.81.168 14.707.838 14.707.838l-2.096-5.733z"/>
            <path fill="#7B7BBF" d="M501.01 97.572s4.354 15.6-8.945 15.6c-5.288-8.225-17.353-19.49-17.353-19.49l26.299 3.89z"/>
            <path fill="#FFE98D" d="M486.686 62.876a4.756 4.756 0 0 0-1.84-4.173 4.797 4.797 0 0 0-3.07-1.002c-2.46.063-4.434 2.13-4.651 4.577-.502 5.642-3.225 18.186-8.275 20.103-.88.33-1.883.279-2.918-.013-1.933-.544-4.006.068-5.196 1.688l-.06.082c-1.912 2.553-.834 6.324 2.214 7.289 3.281 1.038 6.412 1.01 9.359-.107 11.883-4.507 14.113-24.486 14.437-28.444"/>
            <path fill="#FFE98D" d="M479.627 62.423s-4.588 4.567-6.528 7.528c-1.94 2.961.968 7.848 3.264 9.157 1.603 3.816.043 7.764-1.744 14.815 0 4.214 19.028 14.947 26.859 3.94-2.695-7.05-4.85-18.804.214-31.396-1.744-2.333-6.8-5.193-9.16-6.547-4.37-2.51-6.093-2.21-6.093-2.21l-6.812 4.713z"/>
            <path fill="#FBDFB6" d="M490.99 65.271c-2.973 1.722-7.47 1.908-10.044.418-2.574-1.49-2.251-4.094.721-5.816 2.973-1.721 7.47-1.908 10.043-.417 2.574 1.49 2.252 4.094-.72 5.815"/>
            <path fill="#3D3DBF" d="M482.205 104.985l.001-.993-.942-.077-23.793-13.6c-.99-.565-2.718-.494-3.86.159l-2.415 1.38-14.137 8.08-.503.287-1.565-.129v1.024l1.791 1.024 24.068 13.756 1.792 1.025 2.068-1.183 14.138-8.08 2.413-1.38c.647-.37.967-.846.943-1.293z"/>
            <path fill="#FFF" d="M481.538 103.322L457.47 89.566c-.99-.565-2.717-.495-3.86.158l-2.414 1.38-14.137 8.08-2.068 1.182 1.791 1.025 24.068 13.756 1.792 1.024 2.068-1.182 14.137-8.08 2.414-1.38c1.143-.653 1.267-1.641.277-2.207"/>
            <path fill="#3D3DBF" d="M469.854 107.534l-12.989-7.643c-.534-.314-1.466-.275-2.083.088l-1.303.767-7.63 4.488-1.116.657.967.57 12.99 7.642.966.569 1.117-.657 7.63-4.489 1.302-.767c.616-.363.683-.911.15-1.225"/>
            <path fill="#3D3DBF" d="M469.222 108.533l-8.787-4.968c-.361-.204-.992-.178-1.41.057l-.88.499-5.162 2.917-.755.427.654.37 8.787 4.968.654.37.755-.427 5.162-2.918.88-.499c.418-.235.463-.592.102-.796M463.548 102.447l-7.189-4.314c-.569-.341-.497-.943.16-1.337l4.645-2.788c.657-.394 1.659-.437 2.228-.096l7.189 4.315c.568.341.496.942-.16 1.337l-4.645 2.787c-.657.394-1.66.438-2.228.096"/>
            <path fill="#FFF" d="M462.72 115.95l-.151-2.454-1.037-16.76-.176-2.862c-.084-1.355-.938-2.91-1.909-3.477l-23.594-13.753c-.349-.202-.664-.248-.922-.163v-.002l-.01.005a.763.763 0 0 0-.18.09l-.311.157.067.096c-.187.282-.283.706-.25 1.247l.177 2.86 1.036 16.761.152 2.453 1.757 1.024 23.595 13.753.771.45.563.796.422-.222z"/>
            <path fill="#3D3DBF" d="M458.698 90.477l-23.595-13.83c-.97-.568-1.689.075-1.605 1.437l.177 2.878 1.036 16.854.152 2.466 1.756 1.03 23.595 13.83 1.757 1.029-.152-2.466-1.036-16.854-.177-2.878c-.084-1.362-.938-2.927-1.908-3.496"/>
            <path fill="#FFF" d="M449.176 96.305c-.293 1.076-1.68 1.444-3.099.823-1.418-.62-2.33-1.996-2.039-3.071.293-1.076 1.68-1.444 3.099-.823 1.418.621 2.331 1.996 2.039 3.071"/>
            <path fill="#FBDFB6" d="M473.963 33.711s-1.804 3.205-1.455 8.64c.35 4.46-.409 9.267.705 11.636 1.114 2.369 6.221 6.758 13.986 2.996 6.086-3.275 6.786-10.173 6.786-10.173s1.889-1.07 2.168-2.033c.63-.998.49-4.238-2.938-2.426-3.987-.21-13.25-.975-19.252-8.64"/>
            <path fill="#FBDFB6" d="M482.956 61.448h5.995V55.45h-5.995zM490.582 95.181s-12.233 2.95-14.584 3.437c-2.35.487-4.108 2.983-4.278 4.41-.17 1.428 3.435 3.21 4.278 3.39.844.178 1.07-2.498 3.819-3.092 2.75-.595 14.38-3.151 14.38-3.151l-3.615-4.994z"/>
            <path fill="#FBDFB6" d="M476.909 98.499s-3.363.038-4.651-.29c-1.074-.271-.68 1.449 2.29 1.47 2.969.021 2.36-1.18 2.36-1.18"/>
            <path fill="#FFE98D" d="M501.044 65.076a4.678 4.678 0 0 0-3.506-2.807 4.65 4.65 0 0 0-3.118.541c-2.101 1.192-2.864 3.917-1.931 6.162 2.151 5.179 5.54 17.433 2.045 21.449-.611.696-1.503 1.114-2.534 1.338-1.923.416-3.438 1.912-3.727 3.881-.003.034-.008.065-.013.1-.487 3.122 2.174 5.93 5.256 5.366 3.318-.606 6.018-2.078 8.056-4.42 8.228-9.445 1.004-27.99-.528-31.61"/>
        </g>
        <g transform="translate(8.596 245.544)">
            <path fill="#566CD3" d="M91.26 112.66l.061.045-.135-.165c-.096-.133-.207-.257-.312-.385l-22.4-27.591-.083.248a8.5 8.5 0 0 0-4.385-2.134l-8.058-1.308-4.455-3.902c-3.561-3.12-9.014-2.742-12.117.838-.092.106-.15.227-.236.336l-25.44-4.13c-4.663-.757-9.094 2.46-9.847 7.148-.752 4.689 2.447 9.144 7.11 9.9l37.402 6.072 30.264 26.512c3.562 3.12 9.015 2.742 12.117-.838 2.644-3.051 2.74-7.471.515-10.646"/>
            <path fill="#F99AB6" d="M41.194 102.225l-.016-.016c.006.005.008.01.014.014l.002.002zM40.448 102.209l-.02.028c.193.172.386.344.574.52-.241-.188-.434-.37-.554-.548"/>
            <path fill="#FBDFB6" d="M40.945 102.186l-.01-.01a27.09 27.09 0 0 0-2.14-1.78L15.57 79.449c-2.842-2.14-6.911-1.556-9.043 1.297-2.132 2.854-1.55 6.939 1.292 9.078l26.081 18.088-.003.002s1.067 1.37 2.543 3.313a5.959 5.959 0 0 1 1.271-.872c.555-.277 1.037-.375 1.515-.376 2.884-3.672 1.72-7.793 1.72-7.793"/>
            <path fill="#3D3DBF" d="M48.69 108.41c-.11-1.273-1.05-2.313-2.246-3.187-1.794-1.311-4.164-2.245-5.179-3.013v-.001s1.18 4.096-1.75 7.747c-.484 0-.974.098-1.537.373a6.043 6.043 0 0 0-1.293.867 306.516 306.516 0 0 1 4.127 5.435c.021-.023.025-.057.054-.073l1.358-.814a.366.366 0 0 1 .496.118.351.351 0 0 1-.12.487l-1.359.814c-.01.006-.023 0-.034.005.284.386.563.769.834 1.144.028-.05.047-.104.1-.135l1.358-.814a.366.366 0 0 1 .495.118.351.351 0 0 1-.12.487l-1.358.814c-.039.023-.083.012-.126.019.268.375.528.743.772 1.096.026-.03.033-.072.07-.093l1.358-.814a.365.365 0 0 1 .495.118.351.351 0 0 1-.12.487l-1.358.813c-.026.016-.057.005-.085.013.26.381.5.743.717 1.08a.344.344 0 0 1 .138-.186l1.359-.814a.366.366 0 0 1 .495.118.352.352 0 0 1-.12.487l-1.358.814a.354.354 0 0 1-.226.034c.25.404.46.764.616 1.066 1.847 3.575 2.432 7.287 3.543 7.747-.529-.498.945-2.366 2.666-1.064l.001-.001c1.588-1.325 3.102-3.856 2.356-7.712-1.258-6.506-4.713-10.078-5.019-13.58"/>
            <g transform="translate(46.418 105.215)">
                <mask id="ab" fill="#fff">
                    <use xlink:href="#aa"/>
                </mask>
                <path fill="#FFF" d="M4.885 7.679C3.842 5.955 3.834 3.245 2.914 2.026 2.01.829.192.325.124.306c1.169.881 2.088 1.932 2.196 3.214.299 3.534 3.677 7.137 4.907 13.698.73 3.89-.751 6.443-2.303 7.78h-.001c-1.683-1.313-3.124.571-2.607 1.074.048.016.093.023.14.037 6.633 2.003 9.052-11.977 2.43-18.43" mask="url(#ab)"/>
            </g>
            <path fill="#FFF" d="M41.989 119.27c.117.192.334.243.543.205l-.514-.732c-.096.163-.134.355-.029.527M43.979 117.902c.19-.102.25-.323.134-.491-.115-.168-.365-.222-.555-.12l-1.52.822c-.059.031-.08.087-.112.136l.392.494c.048-.008.097.004.14-.02l1.521-.821zM40.496 117.781c.142.204.436.263.677.161l-.58-.703c-.16.148-.224.36-.097.542M42.477 116.406c.194-.104.256-.328.138-.497-.119-.17-.374-.223-.568-.12l-1.556.83c-.032.016-.037.05-.062.073.153.183.303.365.453.547.012-.005.027.002.039-.005l1.556-.828zM42.74 120.79c.128.194.377.245.602.181a97.071 97.071 0 0 0-.527-.725c-.137.156-.194.363-.075.544"/>
            <path fill="#FFF" d="M44.725 120.16c.192-.103.254-.325.136-.494-.117-.169-.37-.222-.564-.12l-1.544.825c-.04.022-.05.063-.078.094.142.182.275.358.409.532.032-.009.066.003.096-.013l1.545-.825zM44.238 122.2c.09.146.238.21.396.228a53.44 53.44 0 0 0-.422-.68.51.51 0 0 0 .026.452"/>
            <path fill="#FFF" d="M46.229 121.651c.186-.101.245-.32.131-.485-.113-.166-.358-.219-.544-.118l-1.492.811a.347.347 0 0 0-.152.186c.11.155.218.307.317.45a.42.42 0 0 0 .247-.033l1.493-.81z"/>
            <path fill="#F99AB6" d="M52.431 106.721l-.023-.003h.002c.008.003.013.001.021.003"/>
            <path fill="#F99AB6" d="M53.156 106.812c-.206.016-.46-.022-.748-.094.247.037.493.081.739.125.004-.009.006-.022.01-.031"/>
            <path fill="#FBDFB6" d="M47.916 114.985c.093.405.147.874.119 1.503 2.554-.052 4.373-.067 4.373-.067v-.004l-2.444-.688a9.276 9.276 0 0 1-2.048-.744M85.75 112.556l-30.839-5.258a26.847 26.847 0 0 0-2.724-.578c-.005-.002-.009 0-.014-.002 0 0-3.942 1.68-5.006 6.3.297.382.521.828.651 1.445.561.311 1.202.576 1.955.775l2.33.717 30.39 9.34c3.444.911 6.994-1.21 7.89-4.713.896-3.503-1.189-7.115-4.633-8.026"/>
            <path fill="#3D3DBF" d="M51.66 106.916h-.002c-1.223-.31-3.407-1.587-5.532-2.165-1.417-.386-2.807-.462-3.87.268-2.93 2.008-7.842 1.567-13.705 4.75-3.476 1.886-4.529 4.71-4.593 6.82 2.074.528 1.515 2.895.8 2.797 1.041.583 4.306-1.338 8.235-2.173.332-.07.743-.135 1.212-.196a.36.36 0 0 1-.112-.2l-.195-1.599a.364.364 0 0 1 .307-.408.358.358 0 0 1 .397.316l.195 1.6a.361.361 0 0 1-.061.228c.397-.045.827-.086 1.284-.126-.01-.028-.037-.044-.041-.075l-.196-1.598a.365.365 0 0 1 .307-.408.358.358 0 0 1 .396.316l.196 1.599c.005.042-.022.075-.03.114.426-.033.872-.064 1.33-.093-.02-.038-.057-.065-.062-.111l-.195-1.599a.364.364 0 0 1 .307-.407.358.358 0 0 1 .396.316l.196 1.598c.007.062-.025.113-.045.167.46-.028.93-.052 1.406-.076-.003-.012-.015-.017-.017-.03l-.195-1.598a.365.365 0 0 1 .308-.408.358.358 0 0 1 .396.316l.195 1.599c.004.033-.02.057-.024.09 2.355-.11 4.801-.18 6.782-.224a6.298 6.298 0 0 0-.113-1.58c-.13-.624-.353-1.074-.65-1.458 1.061-4.666 4.992-6.362 4.992-6.362"/>
            <path fill="#FFF" d="M43.34 103.712c-1.522.032-3.627 1.749-5.617 2.001-9.149-1.252-18.472 9.597-12.767 13.688.041.03.075.062.117.09.713.099 1.272-2.265-.8-2.791v-.001c.064-2.107 1.116-4.928 4.589-6.813 5.856-3.178 10.764-2.737 13.69-4.743 1.063-.728 2.451-.653 3.866-.267-.056-.043-1.586-1.195-3.079-1.164M38.602 116.84c.168-.025.272-.175.33-.352-.254.017-.501.035-.75.054.086.187.233.326.42.298M38.769 114.573c-.02-.212-.168-.364-.329-.337-.16.027-.275.222-.255.434l.162 1.7c.005.048.035.077.052.118l.495-.04c.017-.057.043-.11.037-.176l-.162-1.7zM40.857 116.95c.183-.03.296-.231.32-.462-.25.014-.5.03-.748.046.045.261.223.451.428.417M40.266 114.587c-.02-.22-.168-.378-.328-.35-.161.027-.276.23-.256.451l.162 1.767c.002.013.012.02.015.033l.55-.035c.003-.035.022-.062.02-.099l-.163-1.767zM36.357 116.915c.18-.029.291-.214.328-.427-.257.024-.503.05-.748.076.069.22.226.382.42.35"/>
            <path fill="#FFF" d="M36.523 115.33c-.02-.215-.168-.37-.329-.342-.16.027-.275.225-.255.441l.162 1.729c.003.033.026.05.035.081.172-.02.344-.038.523-.057.008-.042.03-.077.026-.123l-.162-1.729zM34.84 116.749c.158-.021.272-.127.348-.261-.258.03-.512.06-.749.092.106.114.242.19.402.169"/>
            <path fill="#FFF" d="M35.025 115.31c-.02-.202-.168-.348-.328-.322-.16.025-.276.212-.255.416l.161 1.63a.394.394 0 0 0 .093.205c.14-.022.288-.043.44-.064a.431.431 0 0 0 .05-.234l-.161-1.63z"/>
            <path fill="#FF9FB4" d="M53.137 42.804a5.473 5.473 0 0 0-2.145-4.82 5.627 5.627 0 0 0-3.578-1.157c-2.866.072-5.167 2.461-5.42 5.286-.585 6.518-3.759 21.007-9.644 23.221-1.025.382-2.195.322-3.402-.014-2.252-.63-4.668.08-6.056 1.95-.021.032-.044.061-.068.094-2.23 2.95-.974 7.305 2.58 8.42 3.823 1.199 7.473 1.167 10.906-.124 13.85-5.207 16.45-28.284 16.827-32.856"/>
            <path fill="#3D3DBF" d="M44.172 3.625c5.316-4.678 18.82-1.512 22.269 8.42 3.448 9.931-3.43 18.312-6.96 19.52-12.723-10.74-15.309-27.94-15.309-27.94"/>
            <path fill="#FF9FB4" d="M45.52 39.142s-4.03 11.632-3.72 21.693c.042 7.388-.793 9.36-2.868 17.606 0 4.93 22.1 17.483 31.195 4.61-3.13-8.247-5.632-21.995.25-36.722-2.027-2.73-7.898-6.074-10.64-7.659-5.077-2.935-7.077-2.583-7.077-2.583l-7.14 3.055z"/>
            <path fill="#FBDFB6" d="M57.8 45.66c-3.44 2.039-8.64 2.26-11.617.495-2.978-1.767-2.605-4.852.834-6.891 3.438-2.04 8.639-2.261 11.616-.495 2.978 1.766 2.604 4.852-.834 6.89"/>
            <path fill="#FBDFB6" d="M39.166 8.769s-2.084 3.732-1.68 10.06c.404 5.194-.472 10.792.814 13.551 1.287 2.759 7.186 7.87 16.155 3.489 7.03-3.814 7.838-11.846 7.838-11.846s2.18-1.247 2.504-2.368c.728-1.162.566-4.935-3.393-2.825C57.296 6.18 43.125 3.035 39.166 8.769"/>
            <mask id="ad" fill="#fff">
                <use xlink:href="#ac"/>
            </mask>
            <path fill="#FBDFB6" d="M49.413 40.583H56.9v-6.764h-7.487z" mask="url(#ad)"/>
            <path fill="#3D3DBF" d="M58 13.31s-17.747 7.747-24.31-9.64c5.25-.74 9.243-2.526 12.715-3.418C49.878-.64 60.581.212 58 13.31" mask="url(#ad)"/>
            <path fill="#FFF" d="M1.506 80.414l-.009.005.02.001z" mask="url(#ad)"/>
            <path fill="#FFF" d="M35.099 99.391l2.327 1.315.008-.004h-.002l-2.328-1.314L3.831 81.726l-2.32-1.31-.014-.002 2.328 1.315z" mask="url(#ad)"/>
            <path fill="#B9B8F1" d="M48.613 78.115l-9.6-5.189c-.023-.012-.057-.015-.081-.027l9.732 5.26c-.022-.013-.027-.03-.05-.044M47.445 89.692l-10.76-6.272.217 3.503.615 9.948.005.077 8.027-4.679 1.7-.991c.806-.47.893-1.18.196-1.586" mask="url(#ad)"/>
            <path fill="#B9B8F1" d="M48.972 77.884l-9.533-5.486c-.733-.374-1.922-.325-2.754.117l.192 3.05.385 6.15 2.461 1.417c.744.428 2.055.373 2.914-.12l6.076-3.497c.831-.48.928-1.197.259-1.63" mask="url(#ad)"/>
            <path fill="#FFF" d="M38.183 100.752l-.003-.046-.746.473zM37.62 97.303l-.186.12.006.113.743-.475-.006-.113z" mask="url(#ad)"/>
            <path fill="#FFF" d="M48.622 80.12l-6.193 3.564c-.875.505-2.211.56-2.97.123l-2.509-1.445-.392-6.271-.195-3.11c.848-.451 2.06-.502 2.806-.12.025.013.059.016.082.03l9.584 5.518c.023.014.029.033.05.047.684.442.584 1.175-.263 1.663m13.418 4.575L35.223 69.253c-.411-.62-.9-1.136-1.42-1.435L2.628 49.868c-.46-.266-.876-.324-1.217-.214l-.001-.002-.013.006a.99.99 0 0 0-.236.118l-.412.204.005.008c.358-.16.81-.123 1.316.17l31.175 17.95c.016.01.031.023.047.033.776.468 1.492 1.402 1.953 2.46.289.664.479 1.373.521 2.044l.04.642L36 76.38l.353 5.639.085 1.351.218 3.487.662 10.571.14-.08.416-.24-.62-9.906-.218-3.488 10.846 6.245c.702.405.614 1.112-.197 1.58l-1.715.987-8.091 4.658-.557.32.048.752.2 3.201h.002l.554-.32 2.118-1.22 18.312-10.543 3.126-1.8c.82-.472 1.218-1.076 1.208-1.648-.008-.461-.277-.902-.849-1.232" mask="url(#ad)"/>
            <path fill="#2143AF" d="M13.635 72.405c.367-1.508 2.11-2.025 3.892-1.154.094.046.178.105.268.157.372.213.715.464 1.014.754 1.004.974 1.549 2.295 1.28 3.397-.367 1.507-2.11 2.024-3.892 1.154a5.032 5.032 0 0 1-2.038-1.844 4.05 4.05 0 0 1-.467-1.072c-.13-.476-.164-.951-.057-1.392zM1.809 80.721l2.302 1.34 31.014 18.052 2.309 1.344-.2-3.22-.046-.755-.005-.077-.658-10.63-.217-3.508-.084-1.36-.351-5.67-.193-3.11-.04-.646c-.042-.675-.23-1.388-.518-2.054-.459-1.066-1.17-2.005-1.943-2.475-.016-.01-.03-.025-.047-.034L2.118 49.865c-.504-.293-.953-.33-1.31-.169-.543.247-.866.97-.8 2.045l.233 3.756 1.362 22 .2 3.22.006.004z" mask="url(#ad)"/>
            <path fill="#2143AF" d="M62.873 85.465c.01.567-.39 1.167-1.213 1.635l-3.138 1.786L40.14 99.351l-2.126 1.21.003.031-.559.286-.008.005-2.329-1.327L3.827 81.741l-2.33-1.327v1.327l2.33 1.326 31.294 17.816 2.33 1.326 2.69-1.532 18.38-10.464 3.14-1.787c.84-.479 1.256-1.096 1.226-1.675l.002-1.285-.016-.001z" mask="url(#ad)"/>
            <path fill="#FFF" d="M18.835 71.916a5.147 5.147 0 0 0-1.038-.719c-.092-.05-.178-.106-.273-.15-1.824-.83-3.606-.337-3.983 1.1-.11.42-.074.874.058 1.327.101.347.259.691.478 1.022a5.03 5.03 0 0 0 2.086 1.757c1.823.83 3.606.338 3.982-1.1.274-1.05-.283-2.309-1.31-3.237" mask="url(#ad)"/>
            <path fill="#FBDFB6" d="M60.921 78.911s-14.257 3.55-16.996 4.135c-2.739.586-4.789 3.589-4.987 5.306-.197 1.717 4.004 3.862 4.987 4.077.983.214 1.246-3.004 4.45-3.72 3.205-.714 16.76-3.79 16.76-3.79l-4.214-6.008z" mask="url(#ad)"/>
            <path fill="#FF9FB4" d="M69.714 46.223a5.489 5.489 0 0 0-4.112-3.301 5.44 5.44 0 0 0-3.656.636c-2.464 1.401-3.358 4.607-2.265 7.247 2.523 6.09 6.497 20.502 2.398 25.224-.716.819-1.763 1.311-2.97 1.574-2.257.49-4.033 2.249-4.372 4.565-.003.04-.01.076-.015.117-.571 3.672 2.55 6.974 6.164 6.31 3.89-.712 7.056-2.443 9.447-5.198 9.648-11.107 1.178-32.917-.62-37.174" mask="url(#ad)"/>
        </g>
        <g>
            <path fill="#3C3C41" d="M142.115 144.133s-4.905 10.51 1.514 18.775c4.336 7.553 34.996-7.663 34.996-7.663l-5.77-18.66-30.74 7.548z"/>
            <path fill="#F99AB6" d="M196.682 122.548s4.364-.303 5.98-.862c1.347-.461 1.112 1.798-2.731 2.136-3.844.338-3.249-1.274-3.249-1.274"/>
            <path fill="#F99AB6" d="M178.319 119.38s16.934 2.39 20.177 2.74c3.243.348 5.961 3.535 6.387 5.47.425 1.936-4.201 4.872-5.317 5.23-1.115.36-1.788-3.28-5.584-3.723-3.797-.443-19.863-2.375-19.863-2.375l4.2-7.342z"/>
            <path fill="#FBDFB6" d="M160.817 103.37s.647 22.343 13.09 23.86l4.183-7.366s-9.247-1.238-7.706-15.26c-4.869-1.774-9.567-1.235-9.567-1.235"/>
            <path fill="#649323" d="M157.596 91.702s10.97.333 12.767 12.816c-.576 1.422-2.498 2.81-4.989 2.893-.944-3.802-7.778-15.709-7.778-15.709"/>
            <path fill="#649323" d="M165.986 97.198s3.95 28.142 7.382 39.333c0 4.904-20.792 15.656-31.023 7.658 3.134-8.203 3.867-27.636-2.022-42.285 2.028-2.716 7.908-6.043 10.653-7.619 5.084-2.92 7.087-2.57 7.087-2.57l7.923 5.483z"/>
            <path fill="#FBDFB6" d="M152.058 99.877c3.293 1.874 8.272 2.077 11.124.455 2.85-1.623 2.493-4.458-.799-6.331-3.292-1.874-8.272-2.078-11.123-.455-2.851 1.623-2.494 4.457.798 6.331"/>
            <path fill="#FBDFB6" d="M154.592 96.19h6.76v-6.732h-6.76z"/>
            <path fill="#FFDA40" d="M148.042 78.986s-5.57-11.862 3.391-15.71c5.411.241 5.412 3.785 5.412 3.785l-8.803 11.925z"/>
            <path fill="#FBDFB6" d="M171.583 64.03s2.147 3.78 1.73 10.187c-.415 5.258.488 10.927-.838 13.72-1.325 2.793-7.402 7.969-16.642 3.533-7.243-3.862-8.075-11.995-8.075-11.995s-2.248-1.262-2.581-2.397c-.749-1.177-.583-4.996 3.497-2.86 3.156-9.86 14.668-17.712 22.91-10.188"/>
            <path fill="#FFDA40" d="M172.068 69.377s6.026-2.017 4.919-10.176c-2.532.722-6.726.352-10.049-.758-3.323-1.11-10.207-3.33-15.35 4.626 1.266 3.237 10.973 8.823 20.48 6.308"/>
            <path fill="#FBDFB6" d="M180.428 182.932l-25.854 23.436c-2.593 2.54-5.147 2.785-7.726.23l.464.071c-2.578-2.555.45-6.262 3.044-8.803l20.696-24.225c2.593-2.54 6.823-2.528 9.402.027a6.503 6.503 0 0 1-.026 9.264"/>
            <path fill="#FBDFB6" d="M149.374 211.385c-4.839.152-7.55-3.432-7.55-3.432-.004-.225 14.775-15.117 14.724-15.264 2.46.252-.182 14.516-.182 14.516l-3.455 3.754c-1.609.365-2.251.431-3.537.426"/>
            <path fill="#FFF" d="M144.343 220.977c-.791-1.94-3.886-3.734-4.331-5.26-.75-1.867-.409-4.428.044-5.823.003 1.528 1.4 5.481 2.41 6.362 2.78 2.426 3.678 7.491 8.414 12.566 2.808 3.008 5.884 3.33 7.984 2.845h.001c1.309-.304 2.236-.92 2.486-1.396-2.494 6.823-15.758.26-17.008-9.294"/>
            <path fill="#121F55" d="M159.85 230.316c.027-.077.064-.145.09-.225-.017.072-.05.148-.09.225"/>
            <path fill="#FF7990" d="M158.082 233.079c-.872.348-17.391-19.306-17.391-19.306s-1.119-1.66-1.12-1.659c-.005-2.3.92-4.36 3.83-6.708 0 0 .604 5.742 5.412 5.592.494-.675 2.948-1.185 3.513-.42 1.34 4.67 2.731 10.743 3.95 13.207 1.858 3.752 4.592 6.548 4.303 7.752-.095-.747-2.54-.692-2.497 1.542"/>
            <path fill="#FF7990" d="M158.347 231.411c-2.092.465-5.155.157-7.952-2.716-4.716-4.846-5.611-9.682-8.38-11.999-1.004-.84-2.44-3.783-2.443-5.241l.298-1.561s17.593 21.849 18.477 21.517"/>
            <path fill="#FFF" d="M157.597 232.335c-.039-2.541 2.166-2.603 2.252-1.754-.015.058-.035.106-.05.162-.222.544-1.043 1.247-2.202 1.592M152.031 219.597l1.64-.725c.139-.061.207-.236.15-.388l-.066-.176c-.057-.152-.218-.225-.357-.164l-1.64.725c-.139.061-.207.236-.15.388l.066.176c.057.152.217.226.357.164M152.031 216.605l1.64-.725c.139-.062.207-.236.15-.388l-.066-.176c-.057-.152-.218-.225-.357-.164l-1.64.725c-.139.061-.207.236-.15.388l.066.176c.057.152.217.225.357.164M153.533 220.345l1.64-.725c.139-.061.207-.236.15-.388l-.066-.176c-.057-.152-.218-.225-.357-.164l-1.64.725c-.139.062-.207.236-.15.388l.066.176c.057.152.217.226.357.164M153.533 222.589l1.64-.725c.139-.061.207-.236.15-.388l-.066-.176c-.057-.152-.218-.225-.357-.164l-1.64.725c-.139.062-.207.237-.15.388l.066.176c.057.152.217.226.357.164"/>
            <path fill="#FBDFB6" d="M162.02 194.413l-6.849 34.549c-.573 3.622-2.492 5.334-6.11 4.76l.418-.215c-3.618-.573-3.392-5.411-2.82-9.032l2.206-32.146c.572-3.622 4-6.115 7.618-5.543 3.619.574 6.11 4.005 5.537 7.627"/>
            <path fill="#FBDFB6" d="M151.475 231.996c-4.23 1.198-6.64-1.157-6.64-1.157-.047-.216.188-1.87.43-4.278 2.212-.292 8.576-.958 8.576-.958s-.193 1.088-.24 4.26c-1.346.7-1.82 1.365-2.126 2.133"/>
            <path fill="#FFF" d="M149.795 243.863c-1.176-1.753-3.713-2.92-4.467-4.338-.74-1.39-.442-3.376-.43-3.45.331 1.515.926 2.858 2.083 3.513 3.188 1.802 5.136 6.632 10.768 10.636 3.34 2.375 6.362 2.027 8.274 1.089 1.191-.586 1.95-1.398 2.087-1.925-.932 7.31-15.07 3.68-18.315-5.525"/>
            <path fill="#121F55" d="M168.861 249.031c.012-.081.032-.155.04-.238a1.027 1.027 0 0 1-.04.238"/>
            <path fill="#FF7990" d="M166.71 251.771c-.794.532-21.527-15.062-21.527-15.062l-.001.007c-.508-2.247-.439-4.394.021-5.65 0 0 2.71 2.354 7.466 1.156.346-.767.878-1.43 2.392-2.13 2.351 4.269 6.076 10.852 7.827 12.992 2.667 3.261 5.999 5.395 5.973 6.635-.257-.71-2.68-.122-2.15 2.052"/>
            <path fill="#FF7990" d="M165.857 250.367c-1.903.88-4.91 1.206-8.236-1.02-5.606-3.755-7.545-8.282-10.718-9.972-1.153-.614-1.745-1.874-2.074-3.293v-.006s20.254 14.795 21.028 14.291"/>
            <path fill="#FFF" d="M166.684 251.037c-.535-2.088 1.917-2.652 2.177-1.97-.004.05-.018.095-.025.144-.142.5-.924 1.27-2.152 1.826M158.163 240.5l1.56-1.33c.133-.112.166-.34.075-.503l-.107-.19c-.091-.165-.275-.207-.408-.093l-1.56 1.33c-.133.112-.167.34-.075.503l.106.19c.092.165.275.207.409.093M158.162 238.256l1.56-1.33c.134-.112.167-.34.075-.504l-.106-.19c-.091-.164-.275-.206-.408-.093l-1.56 1.33c-.133.113-.167.34-.075.504l.106.19c.092.165.275.206.408.093M159.664 241.996l1.56-1.329c.134-.113.167-.34.075-.504l-.106-.19c-.091-.165-.275-.206-.408-.093l-1.56 1.329c-.133.113-.167.34-.075.504l.106.19c.092.165.275.206.408.093M160.415 244.24l1.56-1.329c.134-.113.167-.34.076-.504l-.106-.19c-.092-.165-.276-.206-.41-.093l-1.56 1.33c-.132.112-.166.34-.074.504l.106.19c.092.164.275.206.408.092"/>
            <path fill="#649323" d="M140.55 101.474s-2.535 1.776-4.733 14.54c2.777 2.591 6.596 3.145 12.035 1.707 2.43-4.977-1.495-18.122-7.302-16.247"/>
            <path fill="#3C3C41" d="M161.951 185.585l-6.27-31.502c-.838-4.214-4.946-6.97-9.128-6.125-4.182.845-6.917 4.983-6.08 9.196l6.27 31.502c.839 4.213 4.947 6.97 9.129 6.125 4.182-.845 6.918-4.983 6.08-9.196M184.988 173.44l-7.485-22.504c-1.36-4.087-5.849-6.33-9.975-4.983-4.127 1.348-6.39 5.794-5.03 9.882l7.485 22.502c1.36 4.089 5.849 6.33 9.975 4.984 4.127-1.347 6.39-5.794 5.03-9.882"/>
            <path fill="#2222BA" d="M150.839 135.075l-.002-1.182 1.11-.093 28.005-16.209c1.165-.674 3.2-.59 4.544.19l2.84 1.643 16.64 9.63.593.344 1.843-.154v1.22l-2.109 1.221-28.33 16.396-2.108 1.221-2.435-1.41-16.64-9.63-2.84-1.644c-.762-.441-1.139-1.01-1.11-1.543h-.001z"/>
            <path fill="#FFF" d="M151.623 132.492l28.33-16.397c1.164-.674 3.199-.59 4.544.189l2.84 1.644 16.64 9.631 2.435 1.41-2.109 1.22-28.329 16.397-2.108 1.22-2.435-1.41-16.64-9.63-2.841-1.644c-1.345-.779-1.492-1.956-.327-2.63"/>
            <path fill="#2222BA" d="M164.03 137.37l15.312-8.77c.63-.36 1.73-.315 2.456.101l1.536.88 8.994 5.151 1.317.754-1.14.653-15.313 8.77-1.14.653-1.316-.754-8.995-5.151-1.535-.88c-.727-.416-.806-1.046-.177-1.407"/>
            <path fill="#2222BA" d="M166.885 138.723l9.953-5.719c.409-.235 1.124-.206 1.596.066l.999.573 5.846 3.36.856.492-.741.426-9.954 5.719-.74.426-.856-.492-5.847-3.36-.998-.573c-.472-.272-.524-.682-.114-.918M171.392 131.83l9.006-5.024c.711-.397.621-1.097-.201-1.556l-5.819-3.246c-.822-.459-2.078-.509-2.79-.112l-9.005 5.023c-.712.398-.623 1.098.2 1.557l5.819 3.246c.822.458 2.078.508 2.79.111"/>
            <path fill="#FFF" d="M172.616 147.543l.177-2.91 1.202-19.88.205-3.395c.097-1.606 1.088-3.452 2.214-4.123l27.378-16.314c.404-.24.77-.295 1.069-.194l.001-.002.01.006a.89.89 0 0 1 .209.106l.362.187-.079.113c.217.334.328.838.29 1.479l-.205 3.395-1.203 19.88-.176 2.91-2.037 1.214-27.378 16.314-.896.533-.653.944-.49-.263z"/>
            <path fill="#2222BA" d="M177.916 117.329l27.378-16.404c1.125-.675 1.959.088 1.862 1.704l-.205 3.413-1.203 19.992-.176 2.925-2.038 1.221-27.377 16.405-2.038 1.221.175-2.925 1.203-19.992.205-3.413c.097-1.616 1.089-3.473 2.214-4.147"/>
            <path fill="#FFF" d="M188.45 124.616c.335 1.431 1.924 1.921 3.548 1.095 1.625-.826 2.67-2.655 2.336-4.086-.336-1.431-1.924-1.922-3.548-1.095-1.625.826-2.67 2.655-2.336 4.086"/>
            <path fill="#FBDFB6" d="M170.43 139.307s4.333.058 5.992-.434c1.383-.406.876 2.169-2.95 2.2-3.826.032-3.042-1.766-3.042-1.766"/>
            <path fill="#FBDFB6" d="M150.732 133.292s16.631 4.102 19.827 4.78c1.996.422 3.615 3.413 5.64 3.358.86.224.729 6.98-4.03 6.82-1.639-.054-4.045-2.738-6.802-3.633-3.739-.826-19.55-4.38-19.55-4.38l4.915-6.945z"/>
            <path fill="#FBDFB6" d="M135.882 115.292s-1.577 22.631 10.77 25.434l4.936-7.013s-9.165-2.193-6.22-16.197c-4.713-2.288-9.486-2.224-9.486-2.224"/>
        </g>
        <g>
            <g transform="translate(262.066 390.063)">
                <mask id="af" fill="#fff">
                    <use xlink:href="#ae"/>
                </mask>
                <path fill="#A8A5C4" d="M-5.57 29.725h24.12V-5.634H-5.57z" mask="url(#af)"/>
            </g>
            <g transform="translate(285.237 387.07)">
                <mask id="ah" fill="#fff">
                    <use xlink:href="#ag"/>
                </mask>
                <path fill="#A8A5C4" d="M-5.253 23.937h34.097v-29.35H-5.253z" mask="url(#ah)"/>
            </g>
            <g transform="translate(259.823 321.208)">
                <mask id="aj" fill="#fff">
                    <use xlink:href="#ai"/>
                </mask>
                <path fill="#A44C62" d="M-5.522 90.09H48.91V-5.85H-5.522z" mask="url(#aj)"/>
            </g>
            <g transform="translate(232.166 256.096)">
                <mask id="al" fill="#fff">
                    <use xlink:href="#ak"/>
                </mask>
                <path fill="#A44C62" d="M-5.843 21.421h22.71V-5.32h-22.71z" mask="url(#al)"/>
            </g>
            <g transform="translate(238.146 255.347)">
                <mask id="an" fill="#fff">
                    <use xlink:href="#am"/>
                </mask>
                <path fill="#FED569" d="M-5.603 96.678H78.38V-5.623H-5.603z" mask="url(#an)"/>
            </g>
            <g transform="translate(265.055 253.102)">
                <mask id="ap" fill="#fff">
                    <use xlink:href="#ao"/>
                </mask>
                <path fill="#8F2C41" d="M-5.7 24.193h23.833V-5.126H-5.7z" mask="url(#ap)"/>
            </g>
            <g transform="translate(254.59 229.152)">
                <mask id="ar" fill="#fff">
                    <use xlink:href="#aq"/>
                </mask>
                <path fill="#130620" d="M-5.625 37.771h40.486V-5.544H-5.625z" mask="url(#ar)"/>
            </g>
            <g transform="translate(262.813 238.133)">
                <mask id="at" fill="#fff">
                    <use xlink:href="#as"/>
                </mask>
                <path fill="#A44C62" d="M-5.258 28.345h31.361V-5.979H-5.258z" mask="url(#at)"/>
            </g>
            <g transform="translate(265.803 264.328)">
                <mask id="av" fill="#fff">
                    <use xlink:href="#au"/>
                </mask>
                <path fill="#F2C232" d="M-5.465 29.156h32.632V-5.346H-5.465z" mask="url(#av)"/>
            </g>
            <g transform="translate(309.904 270.316)">
                <mask id="ax" fill="#fff">
                    <use xlink:href="#aw"/>
                </mask>
                <path fill="#A44C62" d="M-5.48 14.11h24.656V-5.48H-5.48z" mask="url(#ax)"/>
            </g>
            <path fill="#130620" d="M313.197 274.765l-1.05.107v.49l13.495 7.677 19.394-11.032v-.49l-.73.074-12.766-7.263z"/>
            <path fill="#FFFEFF" d="M312.147 274.613l13.494 7.677 19.395-11.033-13.495-7.677z"/>
            <g transform="translate(312.147 269.567)">
                <mask id="az" fill="#fff">
                    <use xlink:href="#ay"/>
                </mask>
                <path fill="#A44C62" d="M-5.98 9.448h19.445V-5.53H-5.98z" mask="url(#az)"/>
            </g>
            <g transform="translate(300.187 289.026)">
                <mask id="aB" fill="#fff">
                    <use xlink:href="#aA"/>
                </mask>
                <path fill="#FBADA9" d="M-5.349 23.534h21.203V-5.433H-5.349z" mask="url(#aB)"/>
            </g>
            <g transform="translate(327.096 442.452)">
                <mask id="aD" fill="#fff">
                    <use xlink:href="#aC"/>
                </mask>
                <path fill="#C47088" d="M-5.69 16.877h34.46V-5.6H-5.69z" mask="url(#aD)"/>
            </g>
            <g transform="translate(327.096 444.697)">
                <mask id="aF" fill="#fff">
                    <use xlink:href="#aE"/>
                </mask>
                <path fill="#714252" d="M-5.71 15.689h34.388v-21.43H-5.71z" mask="url(#aF)"/>
            </g>
            <g transform="translate(340.55 440.207)">
                <mask id="aH" fill="#fff">
                    <use xlink:href="#aG"/>
                </mask>
                <path fill="#FBADA9" d="M-5.887 13.696h20.534v-19.25H-5.887z" mask="url(#aH)"/>
            </g>
            <g transform="translate(351.763 425.987)">
                <mask id="aJ" fill="#fff">
                    <use xlink:href="#aI"/>
                </mask>
                <path fill="#714252" d="M-5.736 23.146h25.711V-5.907H-5.736z" mask="url(#aJ)"/>
            </g>
            <g transform="translate(351.763 424.49)">
                <mask id="aL" fill="#fff">
                    <use xlink:href="#aK"/>
                </mask>
                <path fill="#C47088" d="M-5.308 23.005h25.97V-5.584h-25.97z" mask="url(#aL)"/>
            </g>
            <g transform="translate(358.49 430.477)">
                <mask id="aN" fill="#fff">
                    <use xlink:href="#aM"/>
                </mask>
                <path fill="#FBADA9" d="M-5.798 12.446h18.334V-5.83H-5.798z" mask="url(#aN)"/>
            </g>
            <g transform="translate(330.833 353.39)">
                <mask id="aP" fill="#fff">
                    <use xlink:href="#aO"/>
                </mask>
                <path fill="#7A98CA" d="M-5.715 95.507H42.73V-5.645H-5.715z" mask="url(#aP)"/>
            </g>
            <g transform="translate(303.924 298.007)">
                <mask id="aR" fill="#fff">
                    <use xlink:href="#aQ"/>
                </mask>
                <path fill="#464861" d="M-5.335 75.878h80.38V-5.56h-80.38z" mask="url(#aR)"/>
            </g>
            <g transform="translate(362.975 310.73)">
                <mask id="aT" fill="#fff">
                    <use xlink:href="#aS"/>
                </mask>
                <path fill="#8AA2D0" d="M-5.298 32.448H8.478V-5.845H-5.298z" mask="url(#aT)"/>
            </g>
            <g transform="translate(330.086 280.045)">
                <mask id="aV" fill="#fff">
                    <use xlink:href="#aU"/>
                </mask>
                <path fill="#FBADA9" d="M-5.613 33.78h33.012V-5.377H-5.613z" mask="url(#aV)"/>
            </g>
            <g transform="translate(329.338 272.56)">
                <mask id="aX" fill="#fff">
                    <use xlink:href="#aW"/>
                </mask>
                <path fill="#130620" d="M-5.606 32.106h38.38V-5.636h-38.38z" mask="url(#aX)"/>
            </g>
            <g transform="translate(226.934 217.178)">
                <mask id="aZ" fill="#fff">
                    <use xlink:href="#aY"/>
                </mask>
                <path fill="#FDC858" d="M-5.98 37.685h35.063V-5.88H-5.98z" mask="url(#aZ)"/>
            </g>
            <g transform="translate(230.671 219.423)">
                <mask id="bb" fill="#fff">
                    <use xlink:href="#ba"/>
                </mask>
                <path fill="#FED989" d="M-5.599 36.317h31.456V-5.65H-5.6z" mask="url(#bb)"/>
            </g>
            <g transform="translate(236.651 227.656)">
                <mask id="bd" fill="#fff">
                    <use xlink:href="#bc"/>
                </mask>
                <path fill="#FDFEFF" d="M-5.512 17.965H13.81V-5.249H-5.512z" mask="url(#bd)"/>
            </g>
            <g transform="translate(357.743 241.127)">
                <mask id="bf" fill="#fff">
                    <use xlink:href="#be"/>
                </mask>
                <path fill="#404D91" d="M-5.385 46.171H29.75v-51.65H-5.385z" mask="url(#bf)"/>
            </g>
            <g transform="translate(361.48 243.372)">
                <mask id="bh" fill="#fff">
                    <use xlink:href="#bg"/>
                </mask>
                <path fill="#7B87D1" d="M-5.828 43.946H26.08V-5.63H-5.828z" mask="url(#bh)"/>
            </g>
            <path fill="#FDFEFF" d="M367.46 256.851v2.494l1.079-.632v7.112l2.341-1.366v-7.114l2.137-1.25v7.113l2.34-1.369v-7.112l1.073-.625v-2.497z"/>
        </g>
        <g>
            <path fill="#8DC63F" d="M191.145 48.021l.912-.516-3.916-6.75 3.823-2.166-.912-1.564-4.273 2.428c-.256.138-.258.607-.003 1.038l4.37 7.53zm19.977 6.585c.125-.07.188-.22.188-.411 0-.2-.061-.42-.185-.627l-4.463-7.69-.912.517 4.01 6.91-4.036 2.286.906 1.56 4.492-2.545zm-14.795.13l6.982-13.825-1.175-1.273-6.981 13.832 1.174 1.266zm17.494-12.772c2.123 1.219 3.837 4.168 3.83 6.587l-.055 19.268c-.007 2.425-1.732 3.402-3.855 2.183l-4.745-2.723-9.296 5.486.031-10.803-16.245-9.324c-2.124-1.22-3.837-4.169-3.83-6.594l.055-19.268c.007-2.418 1.731-3.395 3.854-2.176l30.256 17.364z"/>
            <path fill="#FFF" d="M191.487 39.156l-.87-1.598-4.072 2.48c-.244.142-.246.622-.003 1.062l4.164 7.695.87-.529-3.732-6.896 3.643-2.214zM195.3 53.53l1.182 1.257 7.014-13.719-1.181-1.262zM210.773 54.212l-4.166-7.665-.852.515 3.743 6.888-3.767 2.278.845 1.555 4.194-2.536c.116-.07.175-.219.176-.41 0-.199-.058-.418-.173-.625"/>
            <path fill="#80B537" d="M224.353 44.645a6.24 6.24 0 0 0-.07-.747l-.002-.007v-.005a6.73 6.73 0 0 0-.17-.782l-.047-.16-.004-.012-.009-.029a9.328 9.328 0 0 0-.2-.578 6.03 6.03 0 0 0-.14-.34l-.012-.028a9.062 9.062 0 0 0-.434-.86l-.023-.04c-.01-.016-.018-.033-.027-.05a9.648 9.648 0 0 0-.692-1.02 7.746 7.746 0 0 0-.471-.55l-.012-.012a6.892 6.892 0 0 0-.61-.584l-.086-.07-.019-.016-.064-.053a8.643 8.643 0 0 0-.332-.246 5.54 5.54 0 0 0-.323-.207l-.038-.022-29.92-17.372a5.147 5.147 0 0 0-.43-.223 4.348 4.348 0 0 0-.307-.123l-.029-.01-.012-.003a2.589 2.589 0 0 0-.268-.08 3.08 3.08 0 0 0-.322-.063 2.308 2.308 0 0 0-.112-.012l-.017-.001c-.014-.001-.027-.004-.04-.004a2.206 2.206 0 0 0-.595.035l-.005.001-.008.002a1.777 1.777 0 0 0-.56.213l-6.797 3.973c.17-.1.358-.17.56-.213l.008-.002a2.231 2.231 0 0 1 .657-.03c.224.02.459.07.702.153l.012.004c.247.085.503.203.766.355l29.92 17.373c.26.15.512.328.757.527l.019.016c.241.198.474.417.695.654l.013.013c.448.48.85 1.031 1.19 1.62l.022.04c.165.29.316.586.447.889.002.002.003.006.004.009.134.309.25.623.345.937l.003.012c.094.315.168.63.217.943v.003c.05.314.076.624.075.926l-.054 19.277a4.347 4.347 0 0 1-.083.847c-.05.247-.122.472-.215.673l-.004.013c-.079.169-.18.31-.286.444-.035.044-.067.09-.105.13a1.858 1.858 0 0 1-.415.345l6.797-3.973c.154-.09.29-.21.416-.344.037-.04.07-.087.104-.13.046-.058.097-.108.138-.171.051-.082.1-.17.143-.262l.005-.013a3.179 3.179 0 0 0 .203-.601l.017-.084.004-.023a3.428 3.428 0 0 0 .062-.447 4.67 4.67 0 0 0 .016-.365v-.012l.054-19.277c0-.056 0-.114-.002-.171"/>
        </g>
    </g>
</svg>
